<svg width="22" height="22" viewBox="0 0 22 22" fill="none" xmlns="http://www.w3.org/2000/svg">
<path d="M17.9942 3.34583C17.8877 3.25968 17.7632 3.1985 17.63 3.16677C17.4967 3.13505 17.3581 3.13359 17.2242 3.1625C16.2447 3.36778 15.2335 3.37039 14.2529 3.17018C13.2724 2.96997 12.3431 2.57117 11.5225 1.99833C11.3691 1.89188 11.1868 1.83484 11 1.83484C10.8132 1.83484 10.6309 1.89188 10.4775 1.99833C9.65686 2.57117 8.72765 2.96997 7.74709 3.17018C6.76652 3.37039 5.75535 3.36778 4.77584 3.1625C4.64195 3.13359 4.50328 3.13505 4.37003 3.16677C4.23678 3.1985 4.11233 3.25968 4.00584 3.34583C3.89948 3.43211 3.81381 3.54111 3.75512 3.66485C3.69643 3.78858 3.6662 3.92389 3.66667 4.06083V10.89C3.66585 12.2043 3.97904 13.4997 4.58016 14.6685C5.18127 15.8372 6.05292 16.8454 7.1225 17.6092L10.4683 19.9925C10.6236 20.103 10.8094 20.1624 11 20.1624C11.1906 20.1624 11.3764 20.103 11.5317 19.9925L14.8775 17.6092C15.9471 16.8454 16.8187 15.8372 17.4198 14.6685C18.021 13.4997 18.3342 12.2043 18.3333 10.89V4.06083C18.3338 3.92389 18.3036 3.78858 18.2449 3.66485C18.1862 3.54111 18.1005 3.43211 17.9942 3.34583ZM16.5 10.89C16.5007 11.9119 16.2573 12.9191 15.7902 13.8279C15.323 14.7368 14.6456 15.5209 13.8142 16.115L11 18.1225L8.18584 16.115C7.35445 15.5209 6.67699 14.7368 6.20982 13.8279C5.74266 12.9191 5.4993 11.9119 5.5 10.89V5.115C7.42173 5.27948 9.34637 4.8336 11 3.84083C12.6536 4.8336 14.5783 5.27948 16.5 5.115V10.89Z" fill="#008080"/>
</svg>
