<svg width="22" height="22" viewBox="0 0 22 22" fill="none" xmlns="http://www.w3.org/2000/svg">
<path d="M6.41665 13.75H9.16665C9.40976 13.75 9.64292 13.6534 9.81483 13.4815C9.98674 13.3096 10.0833 13.0765 10.0833 12.8333C10.0833 12.5902 9.98674 12.3571 9.81483 12.1852C9.64292 12.0133 9.40976 11.9167 9.16665 11.9167H6.41665C6.17353 11.9167 5.94037 12.0133 5.76847 12.1852C5.59656 12.3571 5.49998 12.5902 5.49998 12.8333C5.49998 13.0765 5.59656 13.3096 5.76847 13.4815C5.94037 13.6534 6.17353 13.75 6.41665 13.75ZM17.4166 4.58334H4.58331C3.85397 4.58334 3.15449 4.87307 2.63877 5.3888C2.12304 5.90453 1.83331 6.604 1.83331 7.33334V15.5833C1.83331 16.3127 2.12304 17.0122 2.63877 17.5279C3.15449 18.0436 3.85397 18.3333 4.58331 18.3333H17.4166C18.146 18.3333 18.8455 18.0436 19.3612 17.5279C19.8769 17.0122 20.1666 16.3127 20.1666 15.5833V7.33334C20.1666 6.604 19.8769 5.90453 19.3612 5.3888C18.8455 4.87307 18.146 4.58334 17.4166 4.58334ZM18.3333 15.5833C18.3333 15.8265 18.2367 16.0596 18.0648 16.2315C17.8929 16.4034 17.6598 16.5 17.4166 16.5H4.58331C4.3402 16.5 4.10704 16.4034 3.93513 16.2315C3.76322 16.0596 3.66665 15.8265 3.66665 15.5833V10.0833H18.3333V15.5833ZM18.3333 8.25001H3.66665V7.33334C3.66665 7.09023 3.76322 6.85707 3.93513 6.68516C4.10704 6.51325 4.3402 6.41668 4.58331 6.41668H17.4166C17.6598 6.41668 17.8929 6.51325 18.0648 6.68516C18.2367 6.85707 18.3333 7.09023 18.3333 7.33334V8.25001Z" fill="#008080"/>
</svg>
